<?xml version="1.0" encoding="UTF-8"?>
<!DOCTYPE svg PUBLIC "-//W3C//DTD SVG 1.1//EN" "http://www.w3.org/Graphics/SVG/1.1/DTD/svg11.dtd">
<!-- Creator: CorelDRAW -->
<svg xmlns="http://www.w3.org/2000/svg" xml:space="preserve" width="187.463mm" height="188.812mm" version="1.1" style="shape-rendering:geometricPrecision; text-rendering:geometricPrecision; image-rendering:optimizeQuality; fill-rule:evenodd; clip-rule:evenodd"
viewBox="0 0 260494.73 262369.83"
 xmlns:xlink="http://www.w3.org/1999/xlink"
 xmlns:xodm="http://www.corel.com/coreldraw/odm/2003">
 <defs>
  <style type="text/css">
   <![CDATA[
    .fil0 {fill:#282829;fill-rule:nonzero}
   ]]>
  </style>
 </defs>
 <g id="Camada_x0020_1">
  <metadata id="CorelCorpID_0Corel-Layer"/>
  <path class="fil0" d="M213127.53 155949.19l-35502.82 0 0 -38539.61c0,-8303.58 8652.64,-8915.41 10377.11,-8959.32l25125.71 0c13109.31,0 23749.88,10640.58 23749.88,23749.05 0,13109.31 -10640.58,23749.88 -23749.88,23749.88zm0 -71114.03l-26326.03 0c-3235.08,108.25 -11252.41,808.04 -18528.39,5372.95 -6489.06,4040.9 -14221.8,12300.43 -14221.8,28774.33l0 36922.83 -23814.22 0c-6532.28,0 -11799.9,5308.48 -11799.9,11796.85 0,3300.25 1311.63,6227.82 3452.55,8368.75 2119.53,2119.53 5112.41,3451.72 8367.92,3451.72l23814.22 0 0 35502.82c0,13109.31 -10638.35,23749.74 -23746.96,23749.74 -13109.17,0 -23749.74,-10640.44 -23749.74,-23749.74l0 -59097.49 -108.39 0 0 -36924.92c0,-24774.56 -17784.69,-33842.96 -32969.61,-34126.86l-26086.05 0c-26197.35,-40.99 -47411.11,21237.1 -47411.11,47323.15 0,26086.05 21213.76,47367.2 47367.2,47367.2l9176.65 0 0 -43.91 3341.25 0c6532.28,0 11799.07,-5264.71 11799.07,-11796.99 0,-3235.08 -1311.63,-6183.91 -3451.72,-8368.75 -1923.46,-1879.55 -4456.52,-3144.2 -7341.02,-3387.24 -350.59,0 -655.74,-41.69 -1006.33,-41.69l-11797.68 0c-348.51,0 -655.88,41.69 -960.34,41.69 -12957.01,-108.25 -23509.76,-10725.48 -23509.76,-23746.83 0,-13021.48 10640.58,-23749.88 23749.88,-23749.88l25670.28 0c1923.46,196.9 7384.23,1071.51 9112.32,5309.31 456.76,1463.92 611.83,3191.17 611.83,5220.79 0,1815.07 43.91,3343.33 43.91,4654.96l0 55908.54 108.39 0 0 35458.91c0,12672.98 4916.2,24513.87 13873.3,33470.97 8956.4,8959.32 20821.48,13873.44 33470.42,13873.44 26129.96,0 47367.06,-21214.45 47367.06,-47364.98l0 -35461.13 35502.82 0c26129.96,0 47367.2,-21214.45 47367.2,-47364.84 0,-26153.44 -21213.76,-47367.2 -47367.2,-47367.2l0 23.48z"/>
  <path class="fil0" d="M153679.45 47015.77c0,12913.1 -10508.71,23398.46 -23398.46,23398.46 -12891.84,0 -23400.68,-10508.71 -23400.68,-23398.46 0,-12912.4 10487.58,-23421.11 23400.68,-23421.11 12910.18,0 23398.46,10508.71 23398.46,23421.11zm23596.89 0c0,-25933.75 -21084.94,-47015.77 -46995.35,-47015.77 -25913.32,0 -46995.21,21082.03 -46995.21,47015.77 0,25911.24 21081.89,46995.35 46995.21,46995.35 25910.4,0 46995.35,-21084.11 46995.35,-46995.35z"/>
 </g>
</svg>
